<?xml version="1.0" standalone="no"?>
<!DOCTYPE svg PUBLIC "-//W3C//DTD SVG 20010904//EN"
 "http://www.w3.org/TR/2001/REC-SVG-20010904/DTD/svg10.dtd">
<svg version="1.0" xmlns="http://www.w3.org/2000/svg"
 width="512.000000pt" height="512.000000pt" viewBox="0 0 512.000000 512.000000"
 preserveAspectRatio="xMidYMid meet">

<g transform="translate(0.000000,512.000000) scale(0.100000,-0.100000)"
fill="#000000" stroke="none">
<path d="M535 5110 c-350 -48 -596 -394 -521 -734 22 -96 81 -215 141 -283 58
-65 174 -144 256 -173 88 -31 259 -39 349 -16 211 53 371 206 446 426 26 77
26 263 0 340 -59 175 -171 309 -317 378 -122 58 -236 78 -354 62z"/>
<path d="M3645 3489 c-305 -44 -598 -225 -761 -471 l-49 -73 -3 238 -2 237
-510 0 -510 0 2 -1707 3 -1708 528 -3 527 -2 0 892 c0 532 4 941 11 1011 38
434 219 644 574 664 310 18 496 -116 565 -408 36 -154 40 -277 40 -1231 l0
-928 531 0 530 0 -4 1118 c-4 1180 -5 1203 -52 1439 -101 501 -355 790 -786
897 -57 14 -142 30 -189 36 -99 12 -359 11 -445 -1z"/>
<path d="M85 3408 c-3 -7 -4 -776 -3 -1708 l3 -1695 530 0 530 0 0 1705 0
1705 -528 3 c-417 2 -529 0 -532 -10z"/>
</g>
</svg>
